<svg id="wave" style="transform:rotate(0deg); transition: 0.3s" viewBox="0 0 1440 490" version="1.1" xmlns="http://www.w3.org/2000/svg"><defs><linearGradient id="sw-gradient-0" x1="0" x2="0" y1="1" y2="0"><stop stop-color="rgba(14, 95, 217, 1)" offset="0%"></stop><stop stop-color="rgba(112, 190, 223, 1)" offset="100%"></stop></linearGradient></defs><path style="transform:translate(0, 0px); opacity:1" fill="url(#sw-gradient-0)" d="M0,245L80,236.8C160,229,320,212,480,179.7C640,147,800,98,960,130.7C1120,163,1280,278,1440,294C1600,310,1760,229,1920,163.3C2080,98,2240,49,2400,98C2560,147,2720,294,2880,294C3040,294,3200,147,3360,106.2C3520,65,3680,131,3840,155.2C4000,180,4160,163,4320,171.5C4480,180,4640,212,4800,245C4960,278,5120,310,5280,269.5C5440,229,5600,114,5760,106.2C5920,98,6080,196,6240,212.3C6400,229,6560,163,6720,122.5C6880,82,7040,65,7200,114.3C7360,163,7520,278,7680,310.3C7840,343,8000,294,8160,269.5C8320,245,8480,245,8640,261.3C8800,278,8960,310,9120,334.8C9280,359,9440,376,9600,343C9760,310,9920,229,10080,171.5C10240,114,10400,82,10560,130.7C10720,180,10880,310,11040,375.7C11200,441,11360,441,11440,441L11520,441L11520,490L11440,490C11360,490,11200,490,11040,490C10880,490,10720,490,10560,490C10400,490,10240,490,10080,490C9920,490,9760,490,9600,490C9440,490,9280,490,9120,490C8960,490,8800,490,8640,490C8480,490,8320,490,8160,490C8000,490,7840,490,7680,490C7520,490,7360,490,7200,490C7040,490,6880,490,6720,490C6560,490,6400,490,6240,490C6080,490,5920,490,5760,490C5600,490,5440,490,5280,490C5120,490,4960,490,4800,490C4640,490,4480,490,4320,490C4160,490,4000,490,3840,490C3680,490,3520,490,3360,490C3200,490,3040,490,2880,490C2720,490,2560,490,2400,490C2240,490,2080,490,1920,490C1760,490,1600,490,1440,490C1280,490,1120,490,960,490C800,490,640,490,480,490C320,490,160,490,80,490L0,490Z"></path></svg>